<?xml version="1.0" encoding="utf-8"?>
<!-- Generator: Adobe Illustrator 19.2.1, SVG Export Plug-In . SVG Version: 6.00 Build 0)  -->
<!DOCTYPE svg PUBLIC "-//W3C//DTD SVG 1.1//EN" "http://www.w3.org/Graphics/SVG/1.1/DTD/svg11.dtd">
<svg version="1.1" id="Layer_1" xmlns="http://www.w3.org/2000/svg" xmlns:xlink="http://www.w3.org/1999/xlink" x="0px" y="0px"
	 viewBox="0 0 24 24" style="enable-background:new 0 0 24 24;" xml:space="preserve">
<path fill="#fff" d="M20.4,8.5C20.3,5.4,17.7,3,14.5,3c-1.2,0-2.4,0.4-3.3,1c-1-1.8-3-3-5.2-3C5.5,1,5.1,1.1,4.6,1.2C5.9,5,4.2,7.6,0,7
	c0,3,2.2,5.5,5,5.9C5.1,15.2,7,17,9.4,17h10.3c2.4,0,4.4-1.9,4.4-4.3C24,10.6,22.5,8.9,20.4,8.5z M5.4,11c-1.3-0.2-2.4-1-3-2.1
	C5.4,8.7,7.5,6,6.9,3.1c1.3,0.3,2.3,1.2,2.8,2.3C9,6.3,8.6,7.4,8.6,8.5C7.2,8.8,6,9.7,5.4,11z M19.6,15H9.4C8.1,15,7,14,7,12.7
	c0-2.1,2.1-2.6,3.5-2.5c-0.1-1.4,0.1-5.2,4-5.2c3.8,0,4.2,3.8,4,5.2c1.5-0.1,3.5,0.4,3.5,2.5C22,14,20.9,15,19.6,15z M24,20H5v-2h19
	V20z M24,23H5v-2h19V23z"/>
</svg>
