<?xml version="1.0" encoding="utf-8"?>
<!-- Generator: Adobe Illustrator 19.2.1, SVG Export Plug-In . SVG Version: 6.00 Build 0)  -->
<!DOCTYPE svg PUBLIC "-//W3C//DTD SVG 1.1//EN" "http://www.w3.org/Graphics/SVG/1.1/DTD/svg11.dtd">
<svg version="1.1" id="Layer_1" xmlns="http://www.w3.org/2000/svg" xmlns:xlink="http://www.w3.org/1999/xlink" x="0px" y="0px"
	 viewBox="0 0 24 24" style="enable-background:new 0 0 24 24;" xml:space="preserve">
<path d="M12,6c-0.3,0-0.7,0-1,0.1V2h2v4.1C12.7,6,12.3,6,12,6z M18.3,9.1l2.9-2.9l-1.4-1.4l-2.9,2.9C17.4,8.1,17.9,8.6,18.3,9.1z
	 M7.1,7.7L4.2,4.8L2.8,6.2l2.9,2.9C6.1,8.6,6.6,8.1,7.1,7.7z M24,13v2h-4.1h-2H6.1h-2H4H0v-2h4h0.1h2c0.5-2.8,3-5,5.9-5
	s5.4,2.2,5.9,5h2H24z M15.9,13c-0.4-1.7-2-3-3.9-3s-3.4,1.3-3.9,3H15.9z M12,16.2l-1.3,2.3l-1.4,2.3H12h2.7l-1.4-2.3L12,16.2z"/>
</svg>
